<svg xmlns="http://www.w3.org/2000/svg" viewBox="0 0 300 300" xml:space="preserve"><path fill="#FFDA88" d="M353.738 2174.117h241.887v16.125H353.738zM517.473 2019.344c3.372-6.573 5.31-14.005 5.31-21.9 0-26.569-21.536-48.103-48.101-48.103-26.566 0-48.104 21.534-48.104 48.103 0 7.895 1.94 15.328 5.312 21.9h85.583z"/><path fill="#FFE2A9" d="M483.127 1950.111c-2.715-.475-5.494-.771-8.346-.771-26.566 0-48.104 21.534-48.104 48.103 0 7.895 1.94 15.328 5.312 21.9h16.692c-3.372-6.573-5.312-14.005-5.312-21.9-.001-23.716 17.177-43.372 39.758-47.332z"/><path fill="#F4F4F4" d="M377.553 2040.004h194.468v134.113H377.553z"/><path fill="#9AE8CE" d="M582.353 2029.672c0 5.708-4.627 10.332-10.332 10.332H377.553c-5.705 0-10.543-4.624-10.543-10.332 0-5.705 4.624-10.329 10.329-10.329h194.682c5.705.001 10.332 4.625 10.332 10.329z"/><path fill="#AEF4DB" d="M381.374 2029.672c0-5.705 4.624-10.329 10.329-10.329H377.34c-5.705 0-10.329 4.624-10.329 10.329 0 5.708 4.838 10.332 10.543 10.332h14.364c-5.706 0-10.544-4.624-10.544-10.332z"/><path fill="#AA6148" d="M486.998 1998.852c-9.935 9.936-23.687 12.295-30.713 5.274-7.02-7.027-4.663-20.776 5.275-30.714 9.936-9.933 23.684-12.295 30.708-5.271 7.026 7.024 4.669 20.775-5.27 30.711z"/><path fill="#BC715C" d="M466.662 1978.136c8.569-8.569 19.962-11.486 27.444-7.624-.524-.851-1.119-1.654-1.838-2.371-7.024-7.024-20.772-4.662-30.708 5.271-9.939 9.939-12.295 23.687-5.275 30.714.967.965 2.072 1.736 3.266 2.353-4.598-7.444-1.812-19.42 7.111-28.343z"/><path fill="#BC715C" d="M459.149 2005.375c-2.287 0-4.175-1.828-4.246-4.143-.071-2.356 1.77-4.329 4.119-4.4l.546-.018c6.945-.21 10.113-.301 11.394-11.834 1.72-15.52 13.129-18.514 18.923-17.905 2.337.242 4.036 2.338 3.8 4.689a4.259 4.259 0 0 1-4.621 3.821c-1.417-.112-8.496-.112-9.655 10.341-2.097 18.909-12.207 19.21-19.588 19.432l-.538.015a2.994 2.994 0 0 1-.134.002z"/><path fill="#FFDA88" d="M394.17 2083.846h52.191v90.271H394.17z"/><path fill="#9AE8CE" d="M446.361 2083.846h111.588v68.031H446.361z"/><path fill="#E5E5E4" d="M458.124 2095.908h88.059v43.91h-88.059z"/><path fill="#F9F9F9" d="M377.553 2040.004h8.963v134.113h-8.963z"/><path fill="#F4F4F4" d="M437.32 2131.438a2.675 2.675 0 0 1-2.675 2.675 2.676 2.676 0 0 1-2.674-2.675v-4.916a2.675 2.675 0 0 1 5.349 0v4.916zM497.323 2118.213a4.535 4.535 0 0 1-3.195-7.754l4.298-4.264a4.535 4.535 0 1 1 6.39 6.437l-4.298 4.264a4.512 4.512 0 0 1-3.195 1.317zM502.761 2130.487a4.534 4.534 0 0 1-3.311-7.632l12.037-12.874a4.535 4.535 0 0 1 6.626 6.195l-12.037 12.874a4.534 4.534 0 0 1-3.315 1.437z"/><path fill="#9AE8CE" d="M377.553 2040.004v17.867c0 5.964 4.835 10.798 10.798 10.798 5.964 0 10.801-4.834 10.801-10.798v-17.867h-21.599z"/><path fill="#E5E5E4" d="M399.153 2040.004v17.867c0 5.964 4.835 10.798 10.798 10.798 5.965 0 10.801-4.834 10.801-10.798v-17.867h-21.599z"/><path fill="#9AE8CE" d="M420.752 2040.004v17.867c0 5.964 4.837 10.798 10.801 10.798 5.963 0 10.798-4.834 10.798-10.798v-17.867h-21.599z"/><path fill="#E5E5E4" d="M442.351 2040.004v17.867c0 5.964 4.835 10.798 10.798 10.798 5.965 0 10.801-4.834 10.801-10.798v-17.867h-21.599z"/><path fill="#9AE8CE" d="M463.95 2040.004v17.867c0 5.964 4.837 10.798 10.798 10.798 5.963 0 10.801-4.834 10.801-10.798v-17.867H463.95z"/><path fill="#E5E5E4" d="M485.55 2040.004v17.867c0 5.964 4.837 10.798 10.801 10.798 5.962 0 10.798-4.834 10.798-10.798v-17.867H485.55z"/><path fill="#9AE8CE" d="M507.149 2040.004v17.867c0 5.964 4.835 10.798 10.798 10.798 5.966 0 10.804-4.834 10.804-10.798v-17.867h-21.602z"/><path fill="#E5E5E4" d="M528.751 2040.004v17.867c0 5.964 4.835 10.798 10.798 10.798s10.797-4.834 10.797-10.798v-17.867h-21.595z"/><path fill="#9AE8CE" d="M550.346 2040.004v17.867c0 5.964 4.838 10.798 10.803 10.798 5.962 0 10.798-4.834 10.798-10.798v-17.867h-21.601z"/><path fill="#FFE2A9" d="M353.738 2174.117h10.605v16.125h-10.605zM394.17 2083.846h7.717v90.271h-7.717z"/><path fill="#AEF4DB" d="M446.361 2083.846h8.186v68.031h-8.186z"/><path fill="#EFEFEF" d="M458.124 2095.908h8.014v43.91h-8.014z"/><path fill="#AEF4DB" d="M386.698 2057.871v-17.867h-9.145v17.867c0 5.964 4.835 10.798 10.798 10.798 1.64 0 3.18-.393 4.572-1.048-3.668-1.725-6.225-5.427-6.225-9.75z"/><path fill="#EFEFEF" d="M408.297 2057.871v-17.867h-9.145v17.867c0 5.964 4.835 10.798 10.798 10.798 1.64 0 3.18-.393 4.572-1.048-3.668-1.725-6.225-5.427-6.225-9.75zM451.496 2057.871v-17.867h-9.145v17.867c0 5.964 4.835 10.798 10.798 10.798 1.64 0 3.18-.393 4.572-1.048-3.668-1.725-6.225-5.427-6.225-9.75zM494.694 2057.871v-17.867h-9.145v17.867c0 5.964 4.835 10.798 10.798 10.798 1.64 0 3.18-.393 4.572-1.048-3.668-1.725-6.225-5.427-6.225-9.75zM537.896 2057.871v-17.867h-9.145v17.867c0 5.964 4.835 10.798 10.798 10.798 1.64 0 3.18-.393 4.572-1.048-3.668-1.725-6.225-5.427-6.225-9.75z"/><path fill="#AEF4DB" d="M429.409 2057.871v-17.867h-9.145v17.867c0 5.964 4.835 10.798 10.798 10.798 1.64 0 3.18-.393 4.572-1.048-3.668-1.725-6.225-5.427-6.225-9.75zM473.095 2057.871v-17.867h-9.145v17.867c0 5.964 4.835 10.798 10.798 10.798 1.64 0 3.18-.393 4.572-1.048-3.668-1.725-6.225-5.427-6.225-9.75zM516.293 2057.871v-17.867h-9.145v17.867c0 5.964 4.835 10.798 10.798 10.798 1.64 0 3.18-.393 4.572-1.048-3.668-1.725-6.225-5.427-6.225-9.75zM559.409 2057.871v-17.867h-9.144v17.867c0 5.964 4.835 10.798 10.798 10.798 1.64 0 3.18-.393 4.572-1.048-3.669-1.725-6.226-5.427-6.226-9.75z"/><g><path fill="#161616" d="M572.021 2178.652H377.553a4.535 4.535 0 0 1-4.535-4.535v-134.113a4.535 4.535 0 0 1 4.535-4.535h194.468a4.535 4.535 0 0 1 4.535 4.535v45.443a4.535 4.535 0 0 1-9.07 0v-40.907H382.089v125.042h185.397v-63.212a4.535 4.535 0 0 1 9.07 0v67.748a4.534 4.534 0 0 1-4.535 4.534z"/><path fill="#161616" d="M595.626 2194.777H388.015a4.535 4.535 0 0 1 0-9.07H591.09v-7.054H358.274v7.054h8.818a4.535 4.535 0 0 1 0 9.07h-13.354a4.535 4.535 0 0 1-4.535-4.535v-16.125a4.535 4.535 0 0 1 4.535-4.535h241.887a4.535 4.535 0 0 1 4.535 4.535v16.125a4.534 4.534 0 0 1-4.534 4.535zM572.021 2044.539H377.553c-8.313 0-15.078-6.67-15.078-14.867s6.667-14.864 14.864-14.864h194.682c8.198 0 14.867 6.667 14.867 14.864s-6.668 14.867-14.867 14.867zm-194.682-20.66a5.799 5.799 0 0 0-5.793 5.793c0 3.142 2.75 5.796 6.007 5.796h194.468c3.196 0 5.796-2.601 5.796-5.796s-2.6-5.793-5.796-5.793H377.339zM466.953 2012.759c-5.321 0-10.216-1.769-13.875-5.427-8.928-8.935-6.61-25.243 5.275-37.128 11.888-11.888 28.194-14.203 37.122-5.271 4.469 4.467 6.241 10.946 4.99 18.236-1.153 6.72-4.797 13.426-10.261 18.889-7.017 7.019-15.578 10.701-23.251 10.701zm14.714-44.128c-5.31 0-11.747 2.837-16.9 7.987-8.012 8.014-10.428 19.142-5.274 24.301 5.157 5.164 16.286 2.74 24.298-5.274 4.149-4.149 6.896-9.124 7.733-14.008.74-4.308-.134-7.964-2.463-10.29-1.84-1.839-4.443-2.716-7.394-2.716z"/><path fill="#161616" d="M458.216 2005.991a4.536 4.536 0 0 1-.137-9.068l1.329-.035c7.147-.174 10.106-.245 11.412-11.964.741-6.658 3.245-11.64 7.439-14.808 5.755-4.343 12.31-3.401 13.045-3.275a4.538 4.538 0 0 1 3.722 5.223c-.412 2.457-2.727 4.128-5.179 3.729-.155-.021-3.545-.434-6.19 1.612-2.086 1.615-3.372 4.482-3.822 8.521-2.184 19.591-12.602 19.845-20.208 20.028l-1.267.033c-.048.004-.097.004-.144.004z"/><path fill="#161616" d="M517.473 2023.879H431.89a4.533 4.533 0 0 1-4.035-2.466c-3.856-7.518-5.812-15.581-5.812-23.97 0-29.025 23.614-52.638 52.64-52.638 29.024 0 52.637 23.613 52.637 52.638 0 8.392-1.955 16.456-5.811 23.97a4.536 4.536 0 0 1-4.036 2.466zm-82.721-9.071h79.858a42.931 42.931 0 0 0 3.638-17.365c0-24.023-19.544-43.568-43.566-43.568-24.023 0-43.569 19.544-43.569 43.568a42.913 42.913 0 0 0 3.639 17.365zM446.361 2178.652H394.17a4.535 4.535 0 0 1-4.535-4.535v-90.271a4.535 4.535 0 0 1 4.535-4.535h52.191a4.535 4.535 0 0 1 4.535 4.535v90.271a4.535 4.535 0 0 1-4.535 4.535zm-47.656-9.07h43.12v-81.2h-43.12v81.2z"/><path fill="#161616" d="M557.949 2156.412H446.361a4.535 4.535 0 0 1-4.535-4.535v-68.031a4.535 4.535 0 0 1 4.535-4.535h111.588a4.535 4.535 0 0 1 4.535 4.535v68.031a4.535 4.535 0 0 1-4.535 4.535zm-107.053-9.07h102.517v-58.96H450.896v58.96z"/><path fill="#161616" d="M546.184 2144.354h-88.059a4.535 4.535 0 0 1-4.535-4.535v-43.91a4.535 4.535 0 0 1 4.535-4.535h88.059a4.535 4.535 0 0 1 4.535 4.535v43.91a4.536 4.536 0 0 1-4.535 4.535zm-83.524-9.071h78.988v-34.839H462.66v34.839zM437.32 2131.438a2.675 2.675 0 0 1-2.675 2.675 2.676 2.676 0 0 1-2.674-2.675v-4.916a2.675 2.675 0 0 1 5.349 0v4.916z"/><path fill="#161616" d="M497.323 2118.213a4.535 4.535 0 0 1-3.195-7.754l4.298-4.264a4.535 4.535 0 1 1 6.39 6.437l-4.298 4.264a4.512 4.512 0 0 1-3.195 1.317zM502.761 2130.487a4.535 4.535 0 0 1-3.312-7.632l12.037-12.874a4.535 4.535 0 0 1 6.626 6.194l-12.037 12.874a4.527 4.527 0 0 1-3.314 1.438zM388.352 2073.205c-8.455 0-15.333-6.88-15.333-15.334v-17.867a4.535 4.535 0 0 1 4.535-4.535h21.599a4.535 4.535 0 0 1 4.535 4.535v17.867c0 8.454-6.88 15.334-15.336 15.334zm-6.263-28.666v13.331a6.27 6.27 0 0 0 6.263 6.263 6.27 6.27 0 0 0 6.266-6.263v-13.331h-12.529z"/><path fill="#161616" d="M409.951 2073.205c-8.455 0-15.333-6.88-15.333-15.334v-17.867a4.535 4.535 0 0 1 4.535-4.535h21.599a4.535 4.535 0 0 1 4.535 4.535v17.867c0 8.454-6.88 15.334-15.336 15.334zm-6.263-28.666v13.331a6.269 6.269 0 0 0 6.263 6.263 6.27 6.27 0 0 0 6.266-6.263v-13.331h-12.529z"/><path fill="#161616" d="M431.553 2073.205c-8.457 0-15.336-6.88-15.336-15.334v-17.867a4.535 4.535 0 0 1 4.535-4.535h21.599a4.535 4.535 0 0 1 4.535 4.535v17.867c0 8.454-6.878 15.334-15.333 15.334zm-6.266-28.666v13.331a6.27 6.27 0 0 0 6.266 6.263 6.27 6.27 0 0 0 6.263-6.263v-13.331h-12.529z"/><path fill="#161616" d="M453.149 2073.205c-8.455 0-15.333-6.88-15.333-15.334v-17.867a4.535 4.535 0 0 1 4.535-4.535h21.599a4.535 4.535 0 0 1 4.535 4.535v17.867c.001 8.454-6.879 15.334-15.336 15.334zm-6.263-28.666v13.331a6.27 6.27 0 0 0 6.263 6.263 6.27 6.27 0 0 0 6.266-6.263v-13.331h-12.529z"/><path fill="#161616" d="M474.748 2073.205c-8.455 0-15.334-6.88-15.334-15.334v-17.867a4.535 4.535 0 0 1 4.535-4.535h21.599a4.535 4.535 0 0 1 4.535 4.535v17.867c.002 8.454-6.878 15.334-15.335 15.334zm-6.262-28.666v13.331a6.27 6.27 0 0 0 6.263 6.263 6.27 6.27 0 0 0 6.266-6.263v-13.331h-12.529z"/><path fill="#161616" d="M496.35 2073.205c-8.457 0-15.336-6.88-15.336-15.334v-17.867a4.535 4.535 0 0 1 4.535-4.535h21.599a4.535 4.535 0 0 1 4.535 4.535v17.867c.001 8.454-6.877 15.334-15.333 15.334zm-6.265-28.666v13.331a6.27 6.27 0 0 0 6.266 6.263 6.27 6.27 0 0 0 6.263-6.263v-13.331h-12.529z"/><path fill="#161616" d="M517.947 2073.205c-8.455 0-15.333-6.88-15.333-15.334v-17.867a4.535 4.535 0 0 1 4.535-4.535h21.602a4.535 4.535 0 0 1 4.535 4.535v17.867c0 8.454-6.881 15.334-15.339 15.334zm-6.263-28.666v13.331a6.27 6.27 0 0 0 6.263 6.263c3.456 0 6.269-2.808 6.269-6.263v-13.331h-12.532z"/><path fill="#161616" d="M539.549 2073.205c-8.455 0-15.333-6.88-15.333-15.334v-17.867a4.535 4.535 0 0 1 4.535-4.535h21.595a4.535 4.535 0 0 1 4.535 4.535v17.867c0 8.454-6.878 15.334-15.332 15.334zm-6.263-28.666v13.331a6.27 6.27 0 0 0 6.263 6.263 6.268 6.268 0 0 0 6.261-6.263v-13.331h-12.524z"/><path fill="#161616" d="M561.148 2073.205c-8.458 0-15.338-6.88-15.338-15.334v-17.867a4.535 4.535 0 0 1 4.535-4.535h21.601a4.535 4.535 0 0 1 4.535 4.535v17.867c.001 8.454-6.878 15.334-15.333 15.334zm-6.267-28.666v13.331a6.27 6.27 0 0 0 6.267 6.263 6.27 6.27 0 0 0 6.263-6.263v-13.331h-12.53z"/></g><g><path fill="#FFDA88" d="M29.056 254.326h241.887v16.125H29.056zM192.791 99.553c3.372-6.573 5.31-14.005 5.31-21.9 0-26.569-21.536-48.103-48.101-48.103s-48.105 21.534-48.105 48.103c0 7.896 1.94 15.328 5.312 21.9h85.584z"/><path fill="#FFE2A9" d="M158.445 30.32c-2.715-.475-5.494-.771-8.346-.771-26.566 0-48.104 21.534-48.104 48.103 0 7.896 1.94 15.328 5.312 21.9h16.692c-3.372-6.573-5.312-14.005-5.312-21.9-.001-23.716 17.177-43.372 39.758-47.332z"/><path fill="#F4F4F4" d="M52.872 120.213H247.34v134.113H52.872z"/><path fill="#9AE8CE" d="M257.671 109.881c0 5.708-4.627 10.332-10.332 10.332H52.872c-5.705 0-10.543-4.624-10.543-10.332 0-5.705 4.624-10.329 10.329-10.329H247.34c5.704.001 10.331 4.625 10.331 10.329z"/><path fill="#AEF4DB" d="M56.692 109.881c0-5.705 4.624-10.329 10.329-10.329H52.658c-5.705 0-10.329 4.624-10.329 10.329 0 5.708 4.838 10.332 10.543 10.332h14.364c-5.706 0-10.544-4.624-10.544-10.332z"/><path fill="#AA6148" d="M162.316 79.061c-9.935 9.936-23.687 12.295-30.713 5.274-7.02-7.027-4.663-20.775 5.275-30.714 9.936-9.933 23.684-12.295 30.708-5.271 7.026 7.024 4.669 20.775-5.27 30.711z"/><path fill="#BC715C" d="M141.98 58.345c8.569-8.569 19.962-11.486 27.444-7.624-.524-.851-1.119-1.654-1.838-2.371-7.024-7.024-20.772-4.662-30.708 5.271-9.939 9.939-12.295 23.687-5.275 30.714.967.965 2.072 1.736 3.266 2.353-4.598-7.444-1.812-19.42 7.111-28.343z"/><path fill="#BC715C" d="M134.467 85.583c-2.287 0-4.175-1.828-4.246-4.143-.071-2.356 1.77-4.329 4.119-4.4l.546-.018c6.945-.21 10.113-.301 11.394-11.834 1.72-15.52 13.129-18.514 18.923-17.905 2.337.242 4.036 2.338 3.8 4.689a4.259 4.259 0 0 1-4.621 3.821c-1.417-.112-8.496-.112-9.655 10.341-2.097 18.909-12.207 19.21-19.588 19.432l-.538.015c-.045.002-.089.002-.134.002z"/><path fill="#FFDA88" d="M69.488 164.055h52.191v90.271H69.488z"/><path fill="#9AE8CE" d="M121.679 164.055h111.588v68.031H121.679z"/><path fill="#E5E5E4" d="M133.442 176.117h88.059v43.91h-88.059z"/><path fill="#F9F9F9" d="M52.872 120.213h8.963v134.113h-8.963z"/><path fill="#F4F4F4" d="M112.638 211.647a2.675 2.675 0 0 1-2.675 2.675 2.676 2.676 0 0 1-2.674-2.675v-4.916a2.675 2.675 0 0 1 5.349 0v4.916zM172.642 198.422a4.535 4.535 0 0 1-3.195-7.754l4.298-4.264a4.535 4.535 0 1 1 6.39 6.437l-4.298 4.264a4.516 4.516 0 0 1-3.195 1.317zM178.079 210.696a4.534 4.534 0 0 1-3.311-7.632l12.037-12.874a4.535 4.535 0 0 1 6.626 6.195l-12.037 12.874a4.534 4.534 0 0 1-3.315 1.437z"/><path fill="#9AE8CE" d="M52.872 120.213v17.867c0 5.964 4.835 10.798 10.798 10.798 5.964 0 10.801-4.834 10.801-10.798v-17.867H52.872z"/><path fill="#E5E5E4" d="M74.471 120.213v17.867c0 5.964 4.835 10.798 10.798 10.798 5.965 0 10.801-4.834 10.801-10.798v-17.867H74.471z"/><path fill="#9AE8CE" d="M96.07 120.213v17.867c0 5.964 4.837 10.798 10.801 10.798 5.963 0 10.798-4.834 10.798-10.798v-17.867H96.07z"/><path fill="#E5E5E4" d="M117.669 120.213v17.867c0 5.964 4.835 10.798 10.798 10.798 5.965 0 10.801-4.834 10.801-10.798v-17.867h-21.599z"/><path fill="#9AE8CE" d="M139.268 120.213v17.867c0 5.964 4.836 10.798 10.798 10.798 5.963 0 10.801-4.834 10.801-10.798v-17.867h-21.599z"/><path fill="#E5E5E4" d="M160.868 120.213v17.867c0 5.964 4.837 10.798 10.801 10.798 5.962 0 10.798-4.834 10.798-10.798v-17.867h-21.599z"/><path fill="#9AE8CE" d="M182.467 120.213v17.867c0 5.964 4.835 10.798 10.798 10.798 5.966 0 10.804-4.834 10.804-10.798v-17.867h-21.602z"/><path fill="#E5E5E4" d="M204.069 120.213v17.867c0 5.964 4.835 10.798 10.798 10.798s10.797-4.834 10.797-10.798v-17.867h-21.595z"/><path fill="#9AE8CE" d="M225.664 120.213v17.867c0 5.964 4.838 10.798 10.803 10.798 5.962 0 10.798-4.834 10.798-10.798v-17.867h-21.601z"/><path fill="#FFE2A9" d="M29.056 254.326h10.605v16.125H29.056zM69.488 164.055h7.717v90.271h-7.717z"/><path fill="#AEF4DB" d="M121.679 164.055h8.186v68.031h-8.186z"/><path fill="#EFEFEF" d="M133.442 176.117h8.014v43.91h-8.014z"/><path fill="#AEF4DB" d="M62.016 138.08v-17.867h-9.145v17.867c0 5.964 4.835 10.798 10.798 10.798 1.64 0 3.18-.393 4.572-1.048-3.668-1.725-6.225-5.427-6.225-9.75z"/><path fill="#EFEFEF" d="M83.615 138.08v-17.867H74.47v17.867c0 5.964 4.835 10.798 10.798 10.798 1.64 0 3.18-.393 4.572-1.048-3.668-1.725-6.225-5.427-6.225-9.75zM126.814 138.08v-17.867h-9.145v17.867c0 5.964 4.835 10.798 10.798 10.798 1.64 0 3.18-.393 4.572-1.048-3.668-1.725-6.225-5.427-6.225-9.75zM170.012 138.08v-17.867h-9.145v17.867c0 5.964 4.835 10.798 10.798 10.798 1.64 0 3.18-.393 4.572-1.048-3.668-1.725-6.225-5.427-6.225-9.75zM213.214 138.08v-17.867h-9.145v17.867c0 5.964 4.835 10.798 10.798 10.798 1.64 0 3.18-.393 4.572-1.048-3.668-1.725-6.225-5.427-6.225-9.75z"/><path fill="#AEF4DB" d="M104.727 138.08v-17.867h-9.145v17.867c0 5.964 4.835 10.798 10.798 10.798 1.64 0 3.18-.393 4.572-1.048-3.668-1.725-6.225-5.427-6.225-9.75zM148.413 138.08v-17.867h-9.145v17.867c0 5.964 4.835 10.798 10.798 10.798 1.64 0 3.18-.393 4.572-1.048-3.668-1.725-6.225-5.427-6.225-9.75zM191.611 138.08v-17.867h-9.145v17.867c0 5.964 4.835 10.798 10.798 10.798 1.64 0 3.18-.393 4.572-1.048-3.668-1.725-6.225-5.427-6.225-9.75zM234.727 138.08v-17.867h-9.145v17.867c0 5.964 4.835 10.798 10.798 10.798 1.64 0 3.18-.393 4.572-1.048-3.668-1.725-6.225-5.427-6.225-9.75z"/><g><path fill="#161616" d="M247.34 258.861H52.872a4.535 4.535 0 0 1-4.535-4.535V120.213a4.535 4.535 0 0 1 4.535-4.535H247.34a4.536 4.536 0 0 1 4.535 4.535v45.442a4.535 4.535 0 0 1-9.07 0v-40.907H57.407V249.79h185.397v-63.212a4.535 4.535 0 0 1 9.07 0v67.747a4.534 4.534 0 0 1-4.534 4.536z"/><path fill="#161616" d="M270.944 274.986H63.333a4.535 4.535 0 0 1 0-9.07h203.075v-7.054H33.592v7.054h8.818a4.535 4.535 0 0 1 0 9.07H29.056a4.535 4.535 0 0 1-4.535-4.535v-16.125a4.535 4.535 0 0 1 4.535-4.535h241.887a4.535 4.535 0 0 1 4.535 4.535v16.125a4.534 4.534 0 0 1-4.534 4.535zM247.34 124.748H52.872c-8.313 0-15.078-6.67-15.078-14.867s6.667-14.864 14.864-14.864H247.34c8.198 0 14.867 6.667 14.867 14.864s-6.669 14.867-14.867 14.867zm-194.683-20.66a5.799 5.799 0 0 0-5.793 5.793c0 3.142 2.75 5.796 6.007 5.796H247.34a5.803 5.803 0 0 0 5.796-5.796 5.8 5.8 0 0 0-5.796-5.793H52.657zM142.271 92.968c-5.321 0-10.217-1.769-13.875-5.427-8.928-8.935-6.61-25.243 5.275-37.128 11.888-11.888 28.194-14.203 37.122-5.271 4.469 4.467 6.241 10.946 4.99 18.236-1.153 6.72-4.797 13.426-10.261 18.889-7.017 7.019-15.578 10.701-23.251 10.701zm14.714-44.128c-5.311 0-11.747 2.838-16.9 7.987-8.012 8.014-10.428 19.143-5.274 24.301 5.157 5.164 16.286 2.74 24.298-5.273 4.149-4.149 6.896-9.124 7.733-14.008.74-4.308-.134-7.963-2.463-10.29-1.84-1.841-4.443-2.717-7.394-2.717z"/><path fill="#161616" d="M133.534 86.2a4.536 4.536 0 0 1-.137-9.068l1.329-.035c7.147-.174 10.106-.245 11.412-11.965.741-6.658 3.245-11.64 7.439-14.808 5.755-4.343 12.31-3.402 13.045-3.275a4.538 4.538 0 0 1 3.722 5.223c-.412 2.457-2.727 4.128-5.179 3.729-.155-.021-3.545-.434-6.19 1.612-2.086 1.615-3.372 4.482-3.822 8.521-2.184 19.591-12.602 19.845-20.209 20.028l-1.267.033c-.047.005-.096.005-.143.005z"/><path fill="#161616" d="M192.791 104.088h-85.583a4.534 4.534 0 0 1-4.035-2.465c-3.856-7.518-5.812-15.581-5.812-23.97 0-29.025 23.614-52.638 52.64-52.638 29.024 0 52.637 23.613 52.637 52.638 0 8.392-1.955 16.456-5.811 23.97a4.537 4.537 0 0 1-4.036 2.465zm-82.721-9.071h79.858a42.931 42.931 0 0 0 3.638-17.365c0-24.023-19.544-43.567-43.566-43.567-24.023 0-43.569 19.544-43.569 43.567a42.916 42.916 0 0 0 3.639 17.365zM121.679 258.861H69.488a4.535 4.535 0 0 1-4.535-4.535v-90.271a4.535 4.535 0 0 1 4.535-4.535h52.191a4.535 4.535 0 0 1 4.535 4.535v90.271a4.535 4.535 0 0 1-4.535 4.535zm-47.656-9.071h43.12v-81.2h-43.12v81.2z"/><path fill="#161616" d="M233.267 236.621H121.679a4.535 4.535 0 0 1-4.535-4.535v-68.031a4.535 4.535 0 0 1 4.535-4.535h111.588a4.535 4.535 0 0 1 4.535 4.535v68.031a4.535 4.535 0 0 1-4.535 4.535zm-107.053-9.071h102.517v-58.96H126.214v58.96z"/><path fill="#161616" d="M221.502 224.562h-88.059a4.535 4.535 0 0 1-4.535-4.535v-43.91a4.535 4.535 0 0 1 4.535-4.535h88.059a4.536 4.536 0 0 1 4.535 4.535v43.91a4.535 4.535 0 0 1-4.535 4.535zm-83.524-9.07h78.988v-34.839h-78.988v34.839zM112.638 211.647a2.675 2.675 0 0 1-2.675 2.675 2.676 2.676 0 0 1-2.674-2.675v-4.916a2.675 2.675 0 0 1 5.349 0v4.916z"/><path fill="#161616" d="M172.642 198.422a4.535 4.535 0 0 1-3.195-7.754l4.298-4.264a4.535 4.535 0 1 1 6.39 6.437l-4.298 4.264a4.516 4.516 0 0 1-3.195 1.317zM178.079 210.696a4.535 4.535 0 0 1-3.312-7.633l12.037-12.874a4.534 4.534 0 1 1 6.625 6.194l-12.037 12.874a4.52 4.52 0 0 1-3.313 1.439zM63.67 153.413c-8.455 0-15.333-6.88-15.333-15.334v-17.867a4.535 4.535 0 0 1 4.535-4.535h21.599a4.536 4.536 0 0 1 4.535 4.535v17.867c0 8.454-6.88 15.334-15.336 15.334zm-6.263-28.665v13.332a6.269 6.269 0 0 0 6.263 6.263 6.27 6.27 0 0 0 6.266-6.263v-13.332H57.407z"/><path fill="#161616" d="M85.269 153.413c-8.455 0-15.334-6.88-15.334-15.334v-17.867a4.535 4.535 0 0 1 4.535-4.535h21.6a4.536 4.536 0 0 1 4.535 4.535v17.867c0 8.454-6.88 15.334-15.336 15.334zm-6.263-28.665v13.332a6.27 6.27 0 0 0 6.263 6.263 6.27 6.27 0 0 0 6.266-6.263v-13.332H79.006z"/><path fill="#161616" d="M106.871 153.413c-8.457 0-15.336-6.88-15.336-15.334v-17.867a4.535 4.535 0 0 1 4.535-4.535h21.599a4.536 4.536 0 0 1 4.535 4.535v17.867c0 8.454-6.878 15.334-15.333 15.334zm-6.266-28.665v13.332a6.27 6.27 0 0 0 6.266 6.263 6.27 6.27 0 0 0 6.263-6.263v-13.332h-12.529z"/><path fill="#161616" d="M128.467 153.413c-8.455 0-15.334-6.88-15.334-15.334v-17.867a4.535 4.535 0 0 1 4.535-4.535h21.599a4.536 4.536 0 0 1 4.535 4.535v17.867c.002 8.454-6.878 15.334-15.335 15.334zm-6.263-28.665v13.332a6.27 6.27 0 0 0 6.263 6.263 6.27 6.27 0 0 0 6.266-6.263v-13.332h-12.529z"/><path fill="#161616" d="M150.066 153.413c-8.455 0-15.333-6.88-15.333-15.334v-17.867a4.535 4.535 0 0 1 4.535-4.535h21.599a4.536 4.536 0 0 1 4.535 4.535v17.867c.001 8.454-6.879 15.334-15.336 15.334zm-6.262-28.665v13.332a6.27 6.27 0 0 0 6.263 6.263 6.27 6.27 0 0 0 6.266-6.263v-13.332h-12.529z"/><path fill="#161616" d="M171.669 153.413c-8.457 0-15.336-6.88-15.336-15.334v-17.867a4.535 4.535 0 0 1 4.535-4.535h21.599a4.536 4.536 0 0 1 4.535 4.535v17.867c0 8.454-6.878 15.334-15.333 15.334zm-6.266-28.665v13.332a6.27 6.27 0 0 0 6.266 6.263 6.27 6.27 0 0 0 6.263-6.263v-13.332h-12.529z"/><path fill="#161616" d="M193.265 153.413c-8.455 0-15.333-6.88-15.333-15.334v-17.867a4.535 4.535 0 0 1 4.535-4.535h21.602a4.536 4.536 0 0 1 4.535 4.535v17.867c0 8.454-6.881 15.334-15.339 15.334zm-6.263-28.665v13.332a6.27 6.27 0 0 0 6.263 6.263c3.456 0 6.269-2.808 6.269-6.263v-13.332h-12.532z"/><path fill="#161616" d="M214.867 153.413c-8.455 0-15.333-6.88-15.333-15.334v-17.867a4.535 4.535 0 0 1 4.535-4.535h21.595a4.536 4.536 0 0 1 4.535 4.535v17.867c0 8.454-6.878 15.334-15.332 15.334zm-6.263-28.665v13.332a6.27 6.27 0 0 0 6.263 6.263 6.268 6.268 0 0 0 6.261-6.263v-13.332h-12.524z"/><path fill="#161616" d="M236.466 153.413c-8.458 0-15.338-6.88-15.338-15.334v-17.867a4.535 4.535 0 0 1 4.535-4.535h21.601a4.536 4.536 0 0 1 4.535 4.535v17.867c.001 8.454-6.878 15.334-15.333 15.334zm-6.267-28.665v13.332a6.27 6.27 0 0 0 6.267 6.263 6.27 6.27 0 0 0 6.263-6.263v-13.332h-12.53z"/></g></g></svg>